<svg width="406" height="20" viewBox="0 0 406 20" fill="none" xmlns="http://www.w3.org/2000/svg">
<path d="M0.825313 2H6.94531C8.43865 2 9.76531 2.29333 10.9253 2.88C12.0853 3.45333 12.9853 4.27333 13.6253 5.34C14.2653 6.39333 14.5853 7.61333 14.5853 9C14.5853 10.3867 14.2653 11.6133 13.6253 12.68C12.9853 13.7333 12.0853 14.5533 10.9253 15.14C9.76531 15.7133 8.43865 16 6.94531 16H0.825313V2ZM6.82531 13.8C7.85198 13.8 8.75198 13.6067 9.52531 13.22C10.312 12.82 10.912 12.26 11.3253 11.54C11.752 10.8067 11.9653 9.96 11.9653 9C11.9653 8.04 11.752 7.2 11.3253 6.48C10.912 5.74667 10.312 5.18667 9.52531 4.8C8.75198 4.4 7.85198 4.2 6.82531 4.2H3.42531V13.8H6.82531ZM27.1488 10.72C27.1488 10.8933 27.1354 11.14 27.1088 11.46H18.7288C18.8754 12.2467 19.2554 12.8733 19.8688 13.34C20.4954 13.7933 21.2688 14.02 22.1888 14.02C23.3621 14.02 24.3288 13.6333 25.0888 12.86L26.4288 14.4C25.9488 14.9733 25.3421 15.4067 24.6088 15.7C23.8754 15.9933 23.0488 16.14 22.1288 16.14C20.9554 16.14 19.9221 15.9067 19.0288 15.44C18.1354 14.9733 17.4421 14.3267 16.9488 13.5C16.4688 12.66 16.2288 11.7133 16.2288 10.66C16.2288 9.62 16.4621 8.68667 16.9288 7.86C17.4088 7.02 18.0688 6.36667 18.9088 5.9C19.7488 5.43333 20.6954 5.2 21.7488 5.2C22.7888 5.2 23.7154 5.43333 24.5288 5.9C25.3554 6.35333 25.9954 7 26.4488 7.84C26.9154 8.66667 27.1488 9.62667 27.1488 10.72ZM21.7488 7.2C20.9488 7.2 20.2688 7.44 19.7088 7.92C19.1621 8.38667 18.8288 9.01333 18.7088 9.8H24.7688C24.6621 9.02667 24.3354 8.4 23.7888 7.92C23.2421 7.44 22.5621 7.2 21.7488 7.2ZM32.8502 16.14C31.9835 16.14 31.1368 16.0267 30.3102 15.8C29.4835 15.5733 28.8235 15.2867 28.3302 14.94L29.2902 13.04C29.7702 13.36 30.3435 13.62 31.0102 13.82C31.6902 14.0067 32.3568 14.1 33.0102 14.1C34.5035 14.1 35.2502 13.7067 35.2502 12.92C35.2502 12.5467 35.0568 12.2867 34.6702 12.14C34.2968 11.9933 33.6902 11.8533 32.8502 11.72C31.9702 11.5867 31.2502 11.4333 30.6902 11.26C30.1435 11.0867 29.6635 10.7867 29.2502 10.36C28.8502 9.92 28.6502 9.31333 28.6502 8.54C28.6502 7.52667 29.0702 6.72 29.9102 6.12C30.7635 5.50667 31.9102 5.2 33.3502 5.2C34.0835 5.2 34.8168 5.28667 35.5502 5.46C36.2835 5.62 36.8835 5.84 37.3502 6.12L36.3902 8.02C35.4835 7.48667 34.4635 7.22 33.3302 7.22C32.5968 7.22 32.0368 7.33333 31.6502 7.56C31.2768 7.77333 31.0902 8.06 31.0902 8.42C31.0902 8.82 31.2902 9.10667 31.6902 9.28C32.1035 9.44 32.7368 9.59333 33.5902 9.74C34.4435 9.87333 35.1435 10.0267 35.6902 10.2C36.2368 10.3733 36.7035 10.6667 37.0902 11.08C37.4902 11.4933 37.6902 12.08 37.6902 12.84C37.6902 13.84 37.2568 14.64 36.3902 15.24C35.5235 15.84 34.3435 16.14 32.8502 16.14ZM44.7431 16.14C43.6365 16.14 42.6431 15.9067 41.7631 15.44C40.8831 14.9733 40.1965 14.3267 39.7031 13.5C39.2098 12.66 38.9631 11.7133 38.9631 10.66C38.9631 9.60667 39.2098 8.66667 39.7031 7.84C40.1965 7.01333 40.8765 6.36667 41.7431 5.9C42.6231 5.43333 43.6231 5.2 44.7431 5.2C45.7965 5.2 46.7165 5.41333 47.5031 5.84C48.3031 6.26667 48.9031 6.88 49.3031 7.68L47.3831 8.8C47.0765 8.30667 46.6898 7.94 46.2231 7.7C45.7698 7.44667 45.2698 7.32 44.7231 7.32C43.7898 7.32 43.0165 7.62667 42.4031 8.24C41.7898 8.84 41.4831 9.64667 41.4831 10.66C41.4831 11.6733 41.7831 12.4867 42.3831 13.1C42.9965 13.7 43.7765 14 44.7231 14C45.2698 14 45.7698 13.88 46.2231 13.64C46.6898 13.3867 47.0765 13.0133 47.3831 12.52L49.3031 13.64C48.8898 14.44 48.2831 15.06 47.4831 15.5C46.6965 15.9267 45.7831 16.14 44.7431 16.14ZM61.8042 5.32V16H59.4242V14.64C59.0242 15.12 58.5242 15.4933 57.9242 15.76C57.3242 16.0133 56.6776 16.14 55.9842 16.14C54.5576 16.14 53.4309 15.7467 52.6042 14.96C51.7909 14.16 51.3842 12.98 51.3842 11.42V5.32H53.8842V11.08C53.8842 12.04 54.0976 12.76 54.5242 13.24C54.9642 13.7067 55.5842 13.94 56.3842 13.94C57.2776 13.94 57.9842 13.6667 58.5042 13.12C59.0376 12.56 59.3042 11.76 59.3042 10.72V5.32H61.8042ZM65.0775 1.16H67.5775V16H65.0775V1.16ZM76.7788 5.2C77.8188 5.2 78.7454 5.42667 79.5588 5.88C80.3854 6.33333 81.0321 6.97333 81.4988 7.8C81.9654 8.62667 82.1988 9.58 82.1988 10.66C82.1988 11.74 81.9654 12.7 81.4988 13.54C81.0321 14.3667 80.3854 15.0067 79.5588 15.46C78.7454 15.9133 77.8188 16.14 76.7788 16.14C75.3388 16.14 74.1988 15.66 73.3588 14.7V19.88H70.8588V5.32H73.2388V6.72C73.6521 6.21333 74.1588 5.83333 74.7588 5.58C75.3721 5.32667 76.0454 5.2 76.7788 5.2ZM76.4988 14C77.4188 14 78.1721 13.6933 78.7588 13.08C79.3588 12.4667 79.6588 11.66 79.6588 10.66C79.6588 9.66 79.3588 8.85333 78.7588 8.24C78.1721 7.62667 77.4188 7.32 76.4988 7.32C75.8988 7.32 75.3588 7.46 74.8788 7.74C74.3988 8.00667 74.0188 8.39333 73.7388 8.9C73.4588 9.40667 73.3188 9.99333 73.3188 10.66C73.3188 11.3267 73.4588 11.9133 73.7388 12.42C74.0188 12.9267 74.3988 13.32 74.8788 13.6C75.3588 13.8667 75.8988 14 76.4988 14ZM94.6097 10.72C94.6097 10.8933 94.5964 11.14 94.5697 11.46H86.1897C86.3364 12.2467 86.7164 12.8733 87.3297 13.34C87.9564 13.7933 88.7297 14.02 89.6497 14.02C90.823 14.02 91.7897 13.6333 92.5497 12.86L93.8897 14.4C93.4097 14.9733 92.803 15.4067 92.0697 15.7C91.3364 15.9933 90.5097 16.14 89.5897 16.14C88.4164 16.14 87.383 15.9067 86.4897 15.44C85.5964 14.9733 84.903 14.3267 84.4097 13.5C83.9297 12.66 83.6897 11.7133 83.6897 10.66C83.6897 9.62 83.923 8.68667 84.3897 7.86C84.8697 7.02 85.5297 6.36667 86.3697 5.9C87.2097 5.43333 88.1564 5.2 89.2097 5.2C90.2497 5.2 91.1764 5.43333 91.9897 5.9C92.8164 6.35333 93.4564 7 93.9097 7.84C94.3764 8.66667 94.6097 9.62667 94.6097 10.72ZM89.2097 7.2C88.4097 7.2 87.7297 7.44 87.1697 7.92C86.623 8.38667 86.2897 9.01333 86.1697 9.8H92.2297C92.123 9.02667 91.7964 8.4 91.2497 7.92C90.703 7.44 90.023 7.2 89.2097 7.2ZM97.8311 12.82C98.2978 12.82 98.6844 12.9733 98.9911 13.28C99.2978 13.5867 99.4511 13.9867 99.4511 14.48C99.4511 14.6933 99.4178 14.92 99.3511 15.16C99.2978 15.3867 99.1778 15.7333 98.9911 16.2L97.9711 19.02H96.3511L97.1511 15.96C96.8578 15.84 96.6244 15.6533 96.4511 15.4C96.2911 15.1333 96.2111 14.8267 96.2111 14.48C96.2111 13.9867 96.3644 13.5867 96.6711 13.28C96.9778 12.9733 97.3644 12.82 97.8311 12.82ZM117.461 10.72C117.461 10.8933 117.448 11.14 117.421 11.46H109.041C109.188 12.2467 109.568 12.8733 110.181 13.34C110.808 13.7933 111.581 14.02 112.501 14.02C113.675 14.02 114.641 13.6333 115.401 12.86L116.741 14.4C116.261 14.9733 115.655 15.4067 114.921 15.7C114.188 15.9933 113.361 16.14 112.441 16.14C111.268 16.14 110.235 15.9067 109.341 15.44C108.448 14.9733 107.755 14.3267 107.261 13.5C106.781 12.66 106.541 11.7133 106.541 10.66C106.541 9.62 106.775 8.68667 107.241 7.86C107.721 7.02 108.381 6.36667 109.221 5.9C110.061 5.43333 111.008 5.2 112.061 5.2C113.101 5.2 114.028 5.43333 114.841 5.9C115.668 6.35333 116.308 7 116.761 7.84C117.228 8.66667 117.461 9.62667 117.461 10.72ZM112.061 7.2C111.261 7.2 110.581 7.44 110.021 7.92C109.475 8.38667 109.141 9.01333 109.021 9.8H115.081C114.975 9.02667 114.648 8.4 114.101 7.92C113.555 7.44 112.875 7.2 112.061 7.2ZM123.163 16.14C122.296 16.14 121.449 16.0267 120.623 15.8C119.796 15.5733 119.136 15.2867 118.643 14.94L119.603 13.04C120.083 13.36 120.656 13.62 121.323 13.82C122.003 14.0067 122.669 14.1 123.323 14.1C124.816 14.1 125.563 13.7067 125.563 12.92C125.563 12.5467 125.369 12.2867 124.983 12.14C124.609 11.9933 124.003 11.8533 123.163 11.72C122.283 11.5867 121.563 11.4333 121.003 11.26C120.456 11.0867 119.976 10.7867 119.563 10.36C119.163 9.92 118.963 9.31333 118.963 8.54C118.963 7.52667 119.383 6.72 120.223 6.12C121.076 5.50667 122.223 5.2 123.663 5.2C124.396 5.2 125.129 5.28667 125.863 5.46C126.596 5.62 127.196 5.84 127.663 6.12L126.703 8.02C125.796 7.48667 124.776 7.22 123.643 7.22C122.909 7.22 122.349 7.33333 121.963 7.56C121.589 7.77333 121.403 8.06 121.403 8.42C121.403 8.82 121.603 9.10667 122.003 9.28C122.416 9.44 123.049 9.59333 123.903 9.74C124.756 9.87333 125.456 10.0267 126.003 10.2C126.549 10.3733 127.016 10.6667 127.403 11.08C127.803 11.4933 128.003 12.08 128.003 12.84C128.003 13.84 127.569 14.64 126.703 15.24C125.836 15.84 124.656 16.14 123.163 16.14ZM136.576 15.42C136.282 15.66 135.922 15.84 135.496 15.96C135.082 16.08 134.642 16.14 134.176 16.14C133.002 16.14 132.096 15.8333 131.456 15.22C130.816 14.6067 130.496 13.7133 130.496 12.54V7.4H128.736V5.4H130.496V2.96H132.996V5.4H135.856V7.4H132.996V12.48C132.996 13 133.122 13.4 133.376 13.68C133.629 13.9467 133.996 14.08 134.476 14.08C135.036 14.08 135.502 13.9333 135.876 13.64L136.576 15.42ZM142.712 5.2C144.286 5.2 145.486 5.58 146.312 6.34C147.152 7.08667 147.572 8.22 147.572 9.74V16H145.212V14.7C144.906 15.1667 144.466 15.5267 143.892 15.78C143.332 16.02 142.652 16.14 141.852 16.14C141.052 16.14 140.352 16.0067 139.752 15.74C139.152 15.46 138.686 15.08 138.352 14.6C138.032 14.1067 137.872 13.5533 137.872 12.94C137.872 11.98 138.226 11.2133 138.932 10.64C139.652 10.0533 140.779 9.76 142.312 9.76H145.072V9.6C145.072 8.85333 144.846 8.28 144.392 7.88C143.952 7.48 143.292 7.28 142.412 7.28C141.812 7.28 141.219 7.37333 140.632 7.56C140.059 7.74667 139.572 8.00667 139.172 8.34L138.192 6.52C138.752 6.09333 139.426 5.76667 140.212 5.54C140.999 5.31333 141.832 5.2 142.712 5.2ZM142.372 14.32C142.999 14.32 143.552 14.18 144.032 13.9C144.526 13.6067 144.872 13.1933 145.072 12.66V11.42H142.492C141.052 11.42 140.332 11.8933 140.332 12.84C140.332 13.2933 140.512 13.6533 140.872 13.92C141.232 14.1867 141.732 14.32 142.372 14.32ZM164.261 5.2C165.607 5.2 166.674 5.59333 167.461 6.38C168.247 7.15333 168.641 8.32 168.641 9.88V16H166.141V10.2C166.141 9.26667 165.934 8.56667 165.521 8.1C165.107 7.62 164.514 7.38 163.741 7.38C162.901 7.38 162.227 7.66 161.721 8.22C161.214 8.76667 160.961 9.55333 160.961 10.58V16H158.461V10.2C158.461 9.26667 158.254 8.56667 157.841 8.1C157.427 7.62 156.834 7.38 156.061 7.38C155.207 7.38 154.527 7.65333 154.021 8.2C153.527 8.74667 153.281 9.54 153.281 10.58V16H150.781V5.32H153.161V6.68C153.561 6.2 154.061 5.83333 154.661 5.58C155.261 5.32667 155.927 5.2 156.661 5.2C157.461 5.2 158.167 5.35333 158.781 5.66C159.407 5.95333 159.901 6.39333 160.261 6.98C160.701 6.42 161.267 5.98667 161.961 5.68C162.654 5.36 163.421 5.2 164.261 5.2ZM176.733 16.14C175.653 16.14 174.68 15.9067 173.813 15.44C172.946 14.9733 172.266 14.3267 171.773 13.5C171.293 12.66 171.053 11.7133 171.053 10.66C171.053 9.60667 171.293 8.66667 171.773 7.84C172.266 7.01333 172.946 6.36667 173.813 5.9C174.68 5.43333 175.653 5.2 176.733 5.2C177.826 5.2 178.806 5.43333 179.673 5.9C180.54 6.36667 181.213 7.01333 181.693 7.84C182.186 8.66667 182.433 9.60667 182.433 10.66C182.433 11.7133 182.186 12.66 181.693 13.5C181.213 14.3267 180.54 14.9733 179.673 15.44C178.806 15.9067 177.826 16.14 176.733 16.14ZM176.733 14C177.653 14 178.413 13.6933 179.013 13.08C179.613 12.4667 179.913 11.66 179.913 10.66C179.913 9.66 179.613 8.85333 179.013 8.24C178.413 7.62667 177.653 7.32 176.733 7.32C175.813 7.32 175.053 7.62667 174.453 8.24C173.866 8.85333 173.573 9.66 173.573 10.66C173.573 11.66 173.866 12.4667 174.453 13.08C175.053 13.6933 175.813 14 176.733 14ZM188.124 16.14C187.257 16.14 186.41 16.0267 185.584 15.8C184.757 15.5733 184.097 15.2867 183.604 14.94L184.564 13.04C185.044 13.36 185.617 13.62 186.284 13.82C186.964 14.0067 187.63 14.1 188.284 14.1C189.777 14.1 190.524 13.7067 190.524 12.92C190.524 12.5467 190.33 12.2867 189.944 12.14C189.57 11.9933 188.964 11.8533 188.124 11.72C187.244 11.5867 186.524 11.4333 185.964 11.26C185.417 11.0867 184.937 10.7867 184.524 10.36C184.124 9.92 183.924 9.31333 183.924 8.54C183.924 7.52667 184.344 6.72 185.184 6.12C186.037 5.50667 187.184 5.2 188.624 5.2C189.357 5.2 190.09 5.28667 190.824 5.46C191.557 5.62 192.157 5.84 192.624 6.12L191.664 8.02C190.757 7.48667 189.737 7.22 188.604 7.22C187.87 7.22 187.31 7.33333 186.924 7.56C186.55 7.77333 186.364 8.06 186.364 8.42C186.364 8.82 186.564 9.10667 186.964 9.28C187.377 9.44 188.01 9.59333 188.864 9.74C189.717 9.87333 190.417 10.0267 190.964 10.2C191.51 10.3733 191.977 10.6667 192.364 11.08C192.764 11.4933 192.964 12.08 192.964 12.84C192.964 13.84 192.53 14.64 191.664 15.24C190.797 15.84 189.617 16.14 188.124 16.14ZM203.944 16.14C203.077 16.14 202.231 16.0267 201.404 15.8C200.577 15.5733 199.917 15.2867 199.424 14.94L200.384 13.04C200.864 13.36 201.437 13.62 202.104 13.82C202.784 14.0067 203.451 14.1 204.104 14.1C205.597 14.1 206.344 13.7067 206.344 12.92C206.344 12.5467 206.151 12.2867 205.764 12.14C205.391 11.9933 204.784 11.8533 203.944 11.72C203.064 11.5867 202.344 11.4333 201.784 11.26C201.237 11.0867 200.757 10.7867 200.344 10.36C199.944 9.92 199.744 9.31333 199.744 8.54C199.744 7.52667 200.164 6.72 201.004 6.12C201.857 5.50667 203.004 5.2 204.444 5.2C205.177 5.2 205.911 5.28667 206.644 5.46C207.377 5.62 207.977 5.84 208.444 6.12L207.484 8.02C206.577 7.48667 205.557 7.22 204.424 7.22C203.691 7.22 203.131 7.33333 202.744 7.56C202.371 7.77333 202.184 8.06 202.184 8.42C202.184 8.82 202.384 9.10667 202.784 9.28C203.197 9.44 203.831 9.59333 204.684 9.74C205.537 9.87333 206.237 10.0267 206.784 10.2C207.331 10.3733 207.797 10.6667 208.184 11.08C208.584 11.4933 208.784 12.08 208.784 12.84C208.784 13.84 208.351 14.64 207.484 15.24C206.617 15.84 205.437 16.14 203.944 16.14ZM220.977 10.72C220.977 10.8933 220.964 11.14 220.937 11.46H212.557C212.704 12.2467 213.084 12.8733 213.697 13.34C214.324 13.7933 215.097 14.02 216.017 14.02C217.19 14.02 218.157 13.6333 218.917 12.86L220.257 14.4C219.777 14.9733 219.17 15.4067 218.437 15.7C217.704 15.9933 216.877 16.14 215.957 16.14C214.784 16.14 213.75 15.9067 212.857 15.44C211.964 14.9733 211.27 14.3267 210.777 13.5C210.297 12.66 210.057 11.7133 210.057 10.66C210.057 9.62 210.29 8.68667 210.757 7.86C211.237 7.02 211.897 6.36667 212.737 5.9C213.577 5.43333 214.524 5.2 215.577 5.2C216.617 5.2 217.544 5.43333 218.357 5.9C219.184 6.35333 219.824 7 220.277 7.84C220.744 8.66667 220.977 9.62667 220.977 10.72ZM215.577 7.2C214.777 7.2 214.097 7.44 213.537 7.92C212.99 8.38667 212.657 9.01333 212.537 9.8H218.597C218.49 9.02667 218.164 8.4 217.617 7.92C217.07 7.44 216.39 7.2 215.577 7.2ZM236.858 5.2C238.205 5.2 239.272 5.59333 240.058 6.38C240.845 7.15333 241.238 8.32 241.238 9.88V16H238.738V10.2C238.738 9.26667 238.532 8.56667 238.118 8.1C237.705 7.62 237.112 7.38 236.338 7.38C235.498 7.38 234.825 7.66 234.318 8.22C233.812 8.76667 233.558 9.55333 233.558 10.58V16H231.058V10.2C231.058 9.26667 230.852 8.56667 230.438 8.1C230.025 7.62 229.432 7.38 228.658 7.38C227.805 7.38 227.125 7.65333 226.618 8.2C226.125 8.74667 225.878 9.54 225.878 10.58V16H223.378V5.32H225.758V6.68C226.158 6.2 226.658 5.83333 227.258 5.58C227.858 5.32667 228.525 5.2 229.258 5.2C230.058 5.2 230.765 5.35333 231.378 5.66C232.005 5.95333 232.498 6.39333 232.858 6.98C233.298 6.42 233.865 5.98667 234.558 5.68C235.252 5.36 236.018 5.2 236.858 5.2ZM255.88 5.2C256.92 5.2 257.847 5.42667 258.66 5.88C259.487 6.33333 260.134 6.97333 260.6 7.8C261.067 8.62667 261.3 9.58 261.3 10.66C261.3 11.74 261.067 12.7 260.6 13.54C260.134 14.3667 259.487 15.0067 258.66 15.46C257.847 15.9133 256.92 16.14 255.88 16.14C254.44 16.14 253.3 15.66 252.46 14.7V19.88H249.96V5.32H252.34V6.72C252.754 6.21333 253.26 5.83333 253.86 5.58C254.474 5.32667 255.147 5.2 255.88 5.2ZM255.6 14C256.52 14 257.274 13.6933 257.86 13.08C258.46 12.4667 258.76 11.66 258.76 10.66C258.76 9.66 258.46 8.85333 257.86 8.24C257.274 7.62667 256.52 7.32 255.6 7.32C255 7.32 254.46 7.46 253.98 7.74C253.5 8.00667 253.12 8.39333 252.84 8.9C252.56 9.40667 252.42 9.99333 252.42 10.66C252.42 11.3267 252.56 11.9133 252.84 12.42C253.12 12.9267 253.5 13.32 253.98 13.6C254.46 13.8667 255 14 255.6 14ZM266.051 6.88C266.771 5.76 268.038 5.2 269.851 5.2V7.58C269.638 7.54 269.445 7.52 269.271 7.52C268.298 7.52 267.538 7.80667 266.991 8.38C266.445 8.94 266.171 9.75333 266.171 10.82V16H263.671V5.32H266.051V6.88ZM276.674 16.14C275.594 16.14 274.621 15.9067 273.754 15.44C272.888 14.9733 272.208 14.3267 271.714 13.5C271.234 12.66 270.994 11.7133 270.994 10.66C270.994 9.60667 271.234 8.66667 271.714 7.84C272.208 7.01333 272.888 6.36667 273.754 5.9C274.621 5.43333 275.594 5.2 276.674 5.2C277.768 5.2 278.748 5.43333 279.614 5.9C280.481 6.36667 281.154 7.01333 281.634 7.84C282.128 8.66667 282.374 9.60667 282.374 10.66C282.374 11.7133 282.128 12.66 281.634 13.5C281.154 14.3267 280.481 14.9733 279.614 15.44C278.748 15.9067 277.768 16.14 276.674 16.14ZM276.674 14C277.594 14 278.354 13.6933 278.954 13.08C279.554 12.4667 279.854 11.66 279.854 10.66C279.854 9.66 279.554 8.85333 278.954 8.24C278.354 7.62667 277.594 7.32 276.674 7.32C275.754 7.32 274.994 7.62667 274.394 8.24C273.808 8.85333 273.514 9.66 273.514 10.66C273.514 11.66 273.808 12.4667 274.394 13.08C274.994 13.6933 275.754 14 276.674 14ZM289.665 16.14C288.558 16.14 287.565 15.9067 286.685 15.44C285.805 14.9733 285.118 14.3267 284.625 13.5C284.132 12.66 283.885 11.7133 283.885 10.66C283.885 9.60667 284.132 8.66667 284.625 7.84C285.118 7.01333 285.798 6.36667 286.665 5.9C287.545 5.43333 288.545 5.2 289.665 5.2C290.718 5.2 291.638 5.41333 292.425 5.84C293.225 6.26667 293.825 6.88 294.225 7.68L292.305 8.8C291.998 8.30667 291.612 7.94 291.145 7.7C290.692 7.44667 290.192 7.32 289.645 7.32C288.712 7.32 287.938 7.62667 287.325 8.24C286.712 8.84 286.405 9.64667 286.405 10.66C286.405 11.6733 286.705 12.4867 287.305 13.1C287.918 13.7 288.698 14 289.645 14C290.192 14 290.692 13.88 291.145 13.64C291.612 13.3867 291.998 13.0133 292.305 12.52L294.225 13.64C293.812 14.44 293.205 15.06 292.405 15.5C291.618 15.9267 290.705 16.14 289.665 16.14ZM306.726 5.32V16H304.346V14.64C303.946 15.12 303.446 15.4933 302.846 15.76C302.246 16.0133 301.599 16.14 300.906 16.14C299.479 16.14 298.353 15.7467 297.526 14.96C296.713 14.16 296.306 12.98 296.306 11.42V5.32H298.806V11.08C298.806 12.04 299.019 12.76 299.446 13.24C299.886 13.7067 300.506 13.94 301.306 13.94C302.199 13.94 302.906 13.6667 303.426 13.12C303.959 12.56 304.226 11.76 304.226 10.72V5.32H306.726ZM316.419 15.42C316.126 15.66 315.766 15.84 315.339 15.96C314.926 16.08 314.486 16.14 314.019 16.14C312.846 16.14 311.939 15.8333 311.299 15.22C310.659 14.6067 310.339 13.7133 310.339 12.54V7.4H308.579V5.4H310.339V2.96H312.839V5.4H315.699V7.4H312.839V12.48C312.839 13 312.966 13.4 313.219 13.68C313.473 13.9467 313.839 14.08 314.319 14.08C314.879 14.08 315.346 13.9333 315.719 13.64L316.419 15.42ZM322.924 16.14C321.844 16.14 320.871 15.9067 320.004 15.44C319.138 14.9733 318.458 14.3267 317.964 13.5C317.484 12.66 317.244 11.7133 317.244 10.66C317.244 9.60667 317.484 8.66667 317.964 7.84C318.458 7.01333 319.138 6.36667 320.004 5.9C320.871 5.43333 321.844 5.2 322.924 5.2C324.018 5.2 324.998 5.43333 325.864 5.9C326.731 6.36667 327.404 7.01333 327.884 7.84C328.378 8.66667 328.624 9.60667 328.624 10.66C328.624 11.7133 328.378 12.66 327.884 13.5C327.404 14.3267 326.731 14.9733 325.864 15.44C324.998 15.9067 324.018 16.14 322.924 16.14ZM322.924 14C323.844 14 324.604 13.6933 325.204 13.08C325.804 12.4667 326.104 11.66 326.104 10.66C326.104 9.66 325.804 8.85333 325.204 8.24C324.604 7.62667 323.844 7.32 322.924 7.32C322.004 7.32 321.244 7.62667 320.644 8.24C320.058 8.85333 319.764 9.66 319.764 10.66C319.764 11.66 320.058 12.4667 320.644 13.08C321.244 13.6933 322.004 14 322.924 14ZM334.315 16.14C333.448 16.14 332.602 16.0267 331.775 15.8C330.948 15.5733 330.288 15.2867 329.795 14.94L330.755 13.04C331.235 13.36 331.808 13.62 332.475 13.82C333.155 14.0067 333.822 14.1 334.475 14.1C335.968 14.1 336.715 13.7067 336.715 12.92C336.715 12.5467 336.522 12.2867 336.135 12.14C335.762 11.9933 335.155 11.8533 334.315 11.72C333.435 11.5867 332.715 11.4333 332.155 11.26C331.608 11.0867 331.128 10.7867 330.715 10.36C330.315 9.92 330.115 9.31333 330.115 8.54C330.115 7.52667 330.535 6.72 331.375 6.12C332.228 5.50667 333.375 5.2 334.815 5.2C335.548 5.2 336.282 5.28667 337.015 5.46C337.748 5.62 338.348 5.84 338.815 6.12L337.855 8.02C336.948 7.48667 335.928 7.22 334.795 7.22C334.062 7.22 333.502 7.33333 333.115 7.56C332.742 7.77333 332.555 8.06 332.555 8.42C332.555 8.82 332.755 9.10667 333.155 9.28C333.568 9.44 334.202 9.59333 335.055 9.74C335.908 9.87333 336.608 10.0267 337.155 10.2C337.702 10.3733 338.168 10.6667 338.555 11.08C338.955 11.4933 339.155 12.08 339.155 12.84C339.155 13.84 338.722 14.64 337.855 15.24C336.988 15.84 335.808 16.14 334.315 16.14ZM350.915 5.2C352.489 5.2 353.689 5.58 354.515 6.34C355.355 7.08667 355.775 8.22 355.775 9.74V16H353.415V14.7C353.109 15.1667 352.669 15.5267 352.095 15.78C351.535 16.02 350.855 16.14 350.055 16.14C349.255 16.14 348.555 16.0067 347.955 15.74C347.355 15.46 346.889 15.08 346.555 14.6C346.235 14.1067 346.075 13.5533 346.075 12.94C346.075 11.98 346.429 11.2133 347.135 10.64C347.855 10.0533 348.982 9.76 350.515 9.76H353.275V9.6C353.275 8.85333 353.049 8.28 352.595 7.88C352.155 7.48 351.495 7.28 350.615 7.28C350.015 7.28 349.422 7.37333 348.835 7.56C348.262 7.74667 347.775 8.00667 347.375 8.34L346.395 6.52C346.955 6.09333 347.629 5.76667 348.415 5.54C349.202 5.31333 350.035 5.2 350.915 5.2ZM350.575 14.32C351.202 14.32 351.755 14.18 352.235 13.9C352.729 13.6067 353.075 13.1933 353.275 12.66V11.42H350.695C349.255 11.42 348.535 11.8933 348.535 12.84C348.535 13.2933 348.715 13.6533 349.075 13.92C349.435 14.1867 349.935 14.32 350.575 14.32ZM365.404 15.42C365.11 15.66 364.75 15.84 364.324 15.96C363.91 16.08 363.47 16.14 363.004 16.14C361.83 16.14 360.924 15.8333 360.284 15.22C359.644 14.6067 359.324 13.7133 359.324 12.54V7.4H357.564V5.4H359.324V2.96H361.824V5.4H364.684V7.4H361.824V12.48C361.824 13 361.95 13.4 362.204 13.68C362.457 13.9467 362.824 14.08 363.304 14.08C363.864 14.08 364.33 13.9333 364.704 13.64L365.404 15.42ZM367.46 5.32H369.96V16H367.46V5.32ZM368.72 3.56C368.267 3.56 367.887 3.42 367.58 3.14C367.274 2.84667 367.12 2.48667 367.12 2.06C367.12 1.63333 367.274 1.28 367.58 0.999999C367.887 0.706666 368.267 0.56 368.72 0.56C369.174 0.56 369.554 0.699999 369.86 0.979999C370.167 1.24667 370.32 1.58667 370.32 2C370.32 2.44 370.167 2.81333 369.86 3.12C369.567 3.41333 369.187 3.56 368.72 3.56ZM383.242 5.32L378.662 16H376.082L371.502 5.32H374.102L377.422 13.24L380.842 5.32H383.242ZM389.311 16.14C388.231 16.14 387.258 15.9067 386.391 15.44C385.524 14.9733 384.844 14.3267 384.351 13.5C383.871 12.66 383.631 11.7133 383.631 10.66C383.631 9.60667 383.871 8.66667 384.351 7.84C384.844 7.01333 385.524 6.36667 386.391 5.9C387.258 5.43333 388.231 5.2 389.311 5.2C390.404 5.2 391.384 5.43333 392.251 5.9C393.118 6.36667 393.791 7.01333 394.271 7.84C394.764 8.66667 395.011 9.60667 395.011 10.66C395.011 11.7133 394.764 12.66 394.271 13.5C393.791 14.3267 393.118 14.9733 392.251 15.44C391.384 15.9067 390.404 16.14 389.311 16.14ZM389.311 14C390.231 14 390.991 13.6933 391.591 13.08C392.191 12.4667 392.491 11.66 392.491 10.66C392.491 9.66 392.191 8.85333 391.591 8.24C390.991 7.62667 390.231 7.32 389.311 7.32C388.391 7.32 387.631 7.62667 387.031 8.24C386.444 8.85333 386.151 9.66 386.151 10.66C386.151 11.66 386.444 12.4667 387.031 13.08C387.631 13.6933 388.391 14 389.311 14ZM400.702 16.14C399.835 16.14 398.988 16.0267 398.162 15.8C397.335 15.5733 396.675 15.2867 396.182 14.94L397.142 13.04C397.622 13.36 398.195 13.62 398.862 13.82C399.542 14.0067 400.208 14.1 400.862 14.1C402.355 14.1 403.102 13.7067 403.102 12.92C403.102 12.5467 402.908 12.2867 402.522 12.14C402.148 11.9933 401.542 11.8533 400.702 11.72C399.822 11.5867 399.102 11.4333 398.542 11.26C397.995 11.0867 397.515 10.7867 397.102 10.36C396.702 9.92 396.502 9.31333 396.502 8.54C396.502 7.52667 396.922 6.72 397.762 6.12C398.615 5.50667 399.762 5.2 401.202 5.2C401.935 5.2 402.668 5.28667 403.402 5.46C404.135 5.62 404.735 5.84 405.202 6.12L404.242 8.02C403.335 7.48667 402.315 7.22 401.182 7.22C400.448 7.22 399.888 7.33333 399.502 7.56C399.128 7.77333 398.942 8.06 398.942 8.42C398.942 8.82 399.142 9.10667 399.542 9.28C399.955 9.44 400.588 9.59333 401.442 9.74C402.295 9.87333 402.995 10.0267 403.542 10.2C404.088 10.3733 404.555 10.6667 404.942 11.08C405.342 11.4933 405.542 12.08 405.542 12.84C405.542 13.84 405.108 14.64 404.242 15.24C403.375 15.84 402.195 16.14 400.702 16.14Z" fill="#525459"/>
</svg>
